<?xml version="1.0"?>
<svg width="27.000000000000004" height="27.000000000000004" xmlns="http://www.w3.org/2000/svg" xmlns:svg="http://www.w3.org/2000/svg">
 <title>No title</title>
 <g class="layer" display="inline">
  <title>Layer 3</title>
  <path d="m14.5306,3.542124l0.84972,0.08082c1.84801,0.8561 4.96264,2.30945 5.69842,2.9465c0.82556,0.73396 5.13285,7.43252 5.1698,7.80535c-0.00595,1.59827 -4.03526,5.35517 -5.9636,5.93904c-0.37606,0.09365 -0.79814,-0.32384 -1.36444,-1.23826l0,-5.11116l-0.03719,10.74462c0.01947,0.66096 -0.26994,1.09199 -0.86821,1.2931l-15.6232,0c-0.60875,-0.04543 -0.93113,-0.50555 -0.96716,-1.3804l0,-19.58657c0.10148,-0.6785 0.42387,-1.03914 0.96716,-1.08193" fill="#AAD4FF" fill-opacity="0" id="svg_2" stroke="#b2b2b2" stroke-linejoin="round" stroke-width="1.2"/>
  <path d="m25.58529,13.945744c-2.69975,0.85823 -4.65885,2.76093 -6.02609,5.63348" fill="#AAD4FF" fill-opacity="0" id="svg_1" stroke="#4c4c4c" stroke-linecap="round" stroke-linejoin="round" stroke-width="1.2"/>
  <ellipse cx="7.21701" cy="12.539986" fill="#4c4c4c" id="svg_23" rx="0.607822" ry="0.609613" stroke="#4c4c4c" stroke-linecap="round" stroke-linejoin="round" stroke-width="0.5"/>
  <ellipse cx="7.21701" cy="9.67998" fill="#4c4c4c" id="svg_22" rx="0.607822" ry="0.609613" stroke="#4c4c4c" stroke-linecap="round" stroke-linejoin="round" stroke-width="0.5"/>
  <path d="m14.55315,3.735124l0.47976,0.00571c1.84801,0.8561 5.12964,2.33017 5.86542,2.96721c0.82555,0.73397 4.93495,6.92681 4.9719,7.29964c-0.00595,1.59827 -4.03526,5.35517 -5.9636,5.93903c-0.37605,0.09366 -0.79814,-0.32383 -1.36443,-1.23825l0,-5.11116l-0.0372,10.74462c0.01948,0.66096 -0.26993,1.09199 -0.86821,1.2931l-15.6232,0c-0.60874,-0.04543 -0.93113,-0.50555 -0.96715,-1.3804l0,-19.58657c0.10148,-0.6785 0.42386,-1.03914 0.96715,-1.08193" fill="#AAD4FF" fill-opacity="0" id="svg_21" stroke="#4c4c4c" stroke-linejoin="round" stroke-width="1.2"/>
  <path d="m8.32536,5.849964c3.06821,-1.88057 5.61404,-3.46429 5.34388,-4.45231" fill="#AAD4FF" fill-opacity="0" id="svg_18" stroke="#4c4c4c" stroke-linecap="round" stroke-linejoin="round" stroke-width="1.2"/>
  <path d="m9.24267,13.858444l0.04984,-5.32232c-0.09952,-1.24783 -0.95342,-2.49403 -1.848,-3.15923l-3.48397,-2.41231c-0.51254,-0.36903 -0.90933,-0.92865 -0.89277,-1.52963" fill="#AAD4FF" fill-opacity="0" id="svg_16" stroke="#4c4c4c" stroke-linecap="round" stroke-linejoin="round" stroke-width="1.2"/>
  <path d="m8.38712,5.799964l1.37633,0.18655l2.29363,3.3077l2.46772,-5.55338l-0.85556,-2.56703l-10.56426,0l-0.97905,2.51057l2.50417,5.62253l2.76532,-3.94194" fill="#AAD4FF" fill-opacity="0" id="svg_15" stroke="#4c4c4c" stroke-linejoin="round" stroke-width="1.2"/>
  <path d="m1.04644,15.238834l3.58366,0l0,6.30501c-0.78712,0.77717 -1.98167,1.23307 -3.58366,1.3677" fill="#AAD4FF" fill-opacity="0" id="svg_13" stroke="#4c4c4c" stroke-linejoin="round" stroke-width="1.2"/>
 </g>
</svg>